<mxfile host="app.diagrams.net" modified="2024-06-05T05:57:58.988Z" agent="Mozilla/5.0 (Windows NT 10.0; Win64; x64) AppleWebKit/537.36 (KHTML, like Gecko) Chrome/125.0.0.0 Safari/537.36" etag="ZglFxHo2xIVqQmxedsmC" version="24.4.10" type="github">
  <diagram name="第 1 页" id="9EhVP8dWEAq6zw8ZGbTu">
    <mxGraphModel dx="1877" dy="557" grid="1" gridSize="10" guides="1" tooltips="1" connect="1" arrows="1" fold="1" page="1" pageScale="1" pageWidth="827" pageHeight="1169" math="0" shadow="0">
      <root>
        <mxCell id="0" />
        <mxCell id="1" parent="0" />
        <mxCell id="O57Rjo-vSnDpNgtuCUzZ-8" style="edgeStyle=orthogonalEdgeStyle;rounded=0;orthogonalLoop=1;jettySize=auto;html=1;entryX=0;entryY=0.5;entryDx=0;entryDy=0;" edge="1" parent="1" source="O57Rjo-vSnDpNgtuCUzZ-1" target="O57Rjo-vSnDpNgtuCUzZ-7">
          <mxGeometry relative="1" as="geometry" />
        </mxCell>
        <mxCell id="O57Rjo-vSnDpNgtuCUzZ-1" value="CSDB" style="rounded=1;whiteSpace=wrap;html=1;" vertex="1" parent="1">
          <mxGeometry x="170" y="170" width="110" height="60" as="geometry" />
        </mxCell>
        <mxCell id="O57Rjo-vSnDpNgtuCUzZ-2" value="客户端S1000D&amp;nbsp;编辑器" style="rounded=1;whiteSpace=wrap;html=1;" vertex="1" parent="1">
          <mxGeometry x="165" y="320" width="120" height="60" as="geometry" />
        </mxCell>
        <mxCell id="O57Rjo-vSnDpNgtuCUzZ-3" value="" style="endArrow=classic;startArrow=classic;html=1;rounded=0;entryX=0.5;entryY=1;entryDx=0;entryDy=0;exitX=0.5;exitY=0;exitDx=0;exitDy=0;" edge="1" parent="1" source="O57Rjo-vSnDpNgtuCUzZ-2" target="O57Rjo-vSnDpNgtuCUzZ-1">
          <mxGeometry width="50" height="50" relative="1" as="geometry">
            <mxPoint x="390" y="260" as="sourcePoint" />
            <mxPoint x="440" y="210" as="targetPoint" />
          </mxGeometry>
        </mxCell>
        <mxCell id="O57Rjo-vSnDpNgtuCUzZ-4" value="XML" style="text;html=1;align=center;verticalAlign=middle;resizable=0;points=[];autosize=1;strokeColor=none;fillColor=none;" vertex="1" parent="1">
          <mxGeometry x="230" y="258" width="50" height="30" as="geometry" />
        </mxCell>
        <mxCell id="O57Rjo-vSnDpNgtuCUzZ-6" style="edgeStyle=orthogonalEdgeStyle;rounded=0;orthogonalLoop=1;jettySize=auto;html=1;entryX=0;entryY=0.5;entryDx=0;entryDy=0;" edge="1" parent="1" source="O57Rjo-vSnDpNgtuCUzZ-5" target="O57Rjo-vSnDpNgtuCUzZ-1">
          <mxGeometry relative="1" as="geometry" />
        </mxCell>
        <mxCell id="O57Rjo-vSnDpNgtuCUzZ-5" value="更改源" style="rounded=1;whiteSpace=wrap;html=1;" vertex="1" parent="1">
          <mxGeometry x="-10" y="170" width="110" height="60" as="geometry" />
        </mxCell>
        <mxCell id="O57Rjo-vSnDpNgtuCUzZ-10" style="edgeStyle=orthogonalEdgeStyle;rounded=0;orthogonalLoop=1;jettySize=auto;html=1;" edge="1" parent="1" source="O57Rjo-vSnDpNgtuCUzZ-7" target="O57Rjo-vSnDpNgtuCUzZ-9">
          <mxGeometry relative="1" as="geometry" />
        </mxCell>
        <mxCell id="O57Rjo-vSnDpNgtuCUzZ-7" value="发布系统" style="rounded=1;whiteSpace=wrap;html=1;" vertex="1" parent="1">
          <mxGeometry x="370" y="170" width="110" height="60" as="geometry" />
        </mxCell>
        <mxCell id="O57Rjo-vSnDpNgtuCUzZ-9" value="IMAP" style="rounded=1;whiteSpace=wrap;html=1;" vertex="1" parent="1">
          <mxGeometry x="550" y="170" width="110" height="60" as="geometry" />
        </mxCell>
      </root>
    </mxGraphModel>
  </diagram>
</mxfile>
